<svg id="Layer_1" data-name="Layer 1" xmlns="http://www.w3.org/2000/svg" viewBox="0 0 1080 1080"><defs><style>.cls-1{fill:#eee;}.cls-2{fill:#176b87;}</style></defs><rect class="cls-1" width="1080" height="1080"/><path class="cls-2" d="M640.65,584.82v0a103.21,103.21,0,0,0-14.13-29.08L564.28,467a20.05,20.05,0,1,0-32.91,22.92L575.61,553h0l18,25.64a64.09,64.09,0,1,1-105.2,73.25l-15-21.11-32.92,22.91,15,21.12a104.2,104.2,0,0,0,185.17-90Z"/><path class="cls-2" d="M453.5,524.28,515.73,613a20,20,0,1,0,32.9-22.92l-23.85-34L486.4,501.36a64.1,64.1,0,1,1,105.21-73.25l15,21.11,32.91-22.92-15-21.11a104.19,104.19,0,0,0-188.07,78v0A103.42,103.42,0,0,0,448.85,517C450.28,519.43,451.83,521.88,453.5,524.28Z"/></svg>