<svg id="Layer_1" data-name="Layer 1" xmlns="http://www.w3.org/2000/svg" viewBox="0 0 1080 1080"><defs><style>.cls-1{fill:#053b50;}.cls-2{fill:#64ccc5;}.cls-3{fill:#eee;}</style></defs><rect class="cls-1" width="1080" height="1080"/><path class="cls-2" d="M376,569.21h0a67,67,0,0,0-9.21-19l-40.55-57.81a13.07,13.07,0,0,0-21.44,14.94l28.83,41.1h0l11.71,16.71a41.77,41.77,0,1,1-68.56,47.74L267,599.16l-21.45,14.93,9.78,13.76A67.9,67.9,0,0,0,376,569.21Z"/><path class="cls-2" d="M254,529.76l40.55,57.81A13.07,13.07,0,1,0,316,572.63l-15.54-22.16-25-35.65A41.77,41.77,0,1,1,344,467.08l9.78,13.76,21.44-14.93-9.77-13.76A67.9,67.9,0,0,0,242.92,503v0A67.39,67.39,0,0,0,251,525Q252.4,527.41,254,529.76Z"/><path class="cls-3" d="M435.67,561.63a22.29,22.29,0,0,1-9.61-7.29,19.91,19.91,0,0,1-3.79-11.63H440.2a9,9,0,0,0,2.66,6,8.42,8.42,0,0,0,5.91,2.07,8.9,8.9,0,0,0,5.91-1.82,6,6,0,0,0,2.17-4.88,5.67,5.67,0,0,0-1.73-4.24,14.21,14.21,0,0,0-4.23-2.76,69.91,69.91,0,0,0-7.14-2.46,77.44,77.44,0,0,1-10.94-4.14,20,20,0,0,1-7.29-6.11q-3.06-4-3.06-10.54,0-9.64,7-15.12t18.23-5.47q11.42,0,18.42,5.47t7.49,15.22H455.37a7.42,7.42,0,0,0-2.41-5.47,8.66,8.66,0,0,0-5.87-1.92,7.09,7.09,0,0,0-4.92,1.68,6.11,6.11,0,0,0-1.87,4.82,5.81,5.81,0,0,0,3.15,5.23,51.79,51.79,0,0,0,9.85,4,92.23,92.23,0,0,1,10.89,4.34,20.75,20.75,0,0,1,7.24,6,16.07,16.07,0,0,1,3.05,10.15,20,20,0,0,1-3,10.74,21,21,0,0,1-8.72,7.68,29.79,29.79,0,0,1-13.5,2.86A35.55,35.55,0,0,1,435.67,561.63Z"/><path class="cls-3" d="M497.44,508.42l12.71,34.39,12.61-34.39H541L506.5,589.51H488.38l12.61-28-22.37-53.11Z"/><path class="cls-3" d="M596,514.09q5.76,6.25,5.76,17.19V563.4H585V533.55c0-3.68-1-6.54-2.86-8.58a11.21,11.21,0,0,0-15.37,0q-2.87,3.06-2.86,8.58V563.4H547.09v-55h16.85v7.29a17.78,17.78,0,0,1,6.9-5.76,22,22,0,0,1,9.75-2.12Q590.25,507.83,596,514.09Z"/><path class="cls-3" d="M647.1,563.4l-16.75-23.06V563.4H613.5V490.49h16.85v40.3L647,508.42h20.79L644.93,536,668,563.4Z"/><path class="cls-3" d="M674.24,520.94a23.87,23.87,0,0,1,8.72-9.86,22.74,22.74,0,0,1,12.31-3.44,21.1,21.1,0,0,1,10.2,2.36,17.44,17.44,0,0,1,6.75,6.21v-7.79h16.85v55H712.22v-7.78a18.15,18.15,0,0,1-6.85,6.2,21.11,21.11,0,0,1-10.2,2.37,22.37,22.37,0,0,1-12.21-3.5,24.13,24.13,0,0,1-8.72-10,33.1,33.1,0,0,1-3.2-14.93A32.75,32.75,0,0,1,674.24,520.94Zm34.48,5a11.83,11.83,0,0,0-17-.05q-3.51,3.6-3.5,9.9t3.5,10a11.71,11.71,0,0,0,17,.05q3.49-3.65,3.5-10T708.72,526Z"/><path class="cls-3" d="M765.57,510.64a18.12,18.12,0,0,1,9.8-2.81v17.83h-4.63q-6.3,0-9.46,2.71t-3.15,9.51V563.4H741.28v-55h16.85v9.86A23,23,0,0,1,765.57,510.64Z"/><path class="cls-3" d="M783.3,520.94a23.94,23.94,0,0,1,8.72-9.86,22.75,22.75,0,0,1,12.32-3.44,21.64,21.64,0,0,1,9.9,2.26,18,18,0,0,1,7,6.11V490.49h16.85V563.4H821.28v-7.88a17,17,0,0,1-6.75,6.3,21.09,21.09,0,0,1-10.19,2.37,22.54,22.54,0,0,1-12.32-3.5,24.2,24.2,0,0,1-8.72-10,33.24,33.24,0,0,1-3.2-14.93A32.89,32.89,0,0,1,783.3,520.94Zm34.48,5a11.83,11.83,0,0,0-17-.05q-3.5,3.6-3.5,9.9t3.5,10a11.71,11.71,0,0,0,17,.05q3.51-3.65,3.5-10T817.78,526Z"/></svg>